<?xml version="1.0" standalone="no"?>
<!DOCTYPE svg PUBLIC "-//W3C//DTD SVG 20010904//EN"
 "http://www.w3.org/TR/2001/REC-SVG-20010904/DTD/svg10.dtd">
<svg version="1.0" xmlns="http://www.w3.org/2000/svg"
 width="128.000000pt" height="128.000000pt" viewBox="0 0 128.000000 128.000000"
 preserveAspectRatio="xMidYMid meet">
<metadata>
Created by potrace 1.14, written by Peter Selinger 2001-2017
</metadata>
<g transform="translate(0.000000,128.000000) scale(0.100000,-0.100000)"
fill="#000000" stroke="none">
<path d="M1151 1221 c-8 -5 -20 -7 -28 -4 -7 3 -13 0 -13 -7 0 -6 -4 -8 -10
-5 -5 3 -10 1 -10 -5 0 -6 -4 -8 -10 -5 -5 3 -10 1 -10 -5 0 -6 -4 -9 -9 -6
-5 3 -11 -1 -15 -9 -3 -8 -12 -15 -20 -15 -7 0 -16 -7 -20 -15 -3 -8 -13 -15
-21 -15 -9 0 -14 -4 -11 -8 5 -9 -54 -48 -67 -44 -5 1 -5 -2 -2 -8 8 -13 -26
-41 -39 -33 -5 4 -6 1 -2 -5 4 -7 2 -12 -3 -12 -6 0 -11 -8 -11 -17 0 -14 -2
-15 -9 -5 -6 10 -10 8 -14 -8 -3 -13 -10 -19 -17 -15 -6 3 -9 3 -8 -2 2 -4
-14 -24 -34 -45 -20 -20 -34 -39 -30 -43 4 -5 -3 -6 -15 -3 -16 4 -20 2 -16
-10 4 -10 2 -13 -5 -8 -7 4 -12 1 -12 -9 0 -9 -3 -14 -7 -12 -11 6 -43 -30
-35 -39 4 -4 -1 -4 -10 -1 -10 4 -18 2 -18 -3 0 -6 -7 -10 -15 -10 -8 0 -15
-5 -15 -11 0 -5 5 -7 12 -3 7 4 8 3 4 -5 -4 -6 -11 -9 -16 -6 -5 3 -13 -3 -19
-12 -6 -10 -11 -14 -11 -8 0 5 -7 -1 -16 -13 -9 -13 -22 -21 -30 -18 -8 3 -11
0 -8 -8 3 -8 -4 -20 -15 -28 -12 -8 -18 -19 -13 -24 4 -4 -1 -2 -11 6 -10 7
-17 9 -15 4 3 -11 -24 -54 -34 -54 -16 0 -47 -34 -41 -44 4 -6 -1 -5 -10 3
-15 12 -17 12 -12 -2 4 -8 1 -18 -6 -23 -7 -4 -10 -3 -6 3 3 5 0 10 -7 10 -9
0 -12 -7 -8 -15 4 -11 1 -14 -11 -9 -9 3 -16 3 -16 -1 4 -22 -3 -31 -18 -25
-13 5 -15 2 -10 -11 6 -14 3 -17 -8 -12 -9 3 -13 2 -10 -4 3 -6 1 -10 -5 -10
-6 0 -8 -4 -5 -10 3 -5 2 -10 -4 -10 -5 0 -11 3 -14 8 -2 4 -2 2 -1 -5 2 -7
-4 -19 -12 -28 -9 -8 -12 -15 -8 -15 3 0 1 -6 -5 -13 -6 -8 -7 -18 -3 -22 4
-5 2 -5 -5 -1 -8 4 -15 -3 -19 -19 -4 -15 -12 -24 -19 -21 -8 3 -11 -2 -9 -12
2 -9 -5 -28 -17 -42 -11 -14 -17 -19 -13 -11 5 9 3 12 -5 7 -6 -4 -9 -11 -6
-16 3 -5 -4 -25 -16 -44 l-21 -36 22 0 c11 0 18 -4 15 -10 -3 -6 1 -7 9 -4 9
3 16 2 16 -2 0 -5 37 -8 82 -8 84 1 111 -3 104 -15 -3 -4 4 -8 15 -8 10 -1 19
3 19 8 0 6 -5 7 -12 3 -7 -4 -8 -3 -4 5 6 8 12 9 20 2 7 -6 16 -8 19 -4 4 3 7
2 7 -4 0 -11 29 -11 48 1 7 4 12 2 12 -5 0 -8 4 -8 15 1 12 10 15 10 15 0 0
-9 4 -9 17 1 14 12 15 12 9 0 -7 -10 -3 -12 14 -6 40 13 55 12 65 -1 7 -10 14
-11 25 -3 13 9 12 10 -3 5 -10 -3 -15 -2 -12 4 7 11 33 9 53 -3 7 -5 12 -3 12
4 0 7 8 5 22 -7 12 -10 18 -13 14 -6 -4 6 -2 12 4 12 6 0 8 6 4 13 -6 9 -4 9
7 -1 16 -15 33 -16 23 -1 -3 6 9 3 27 -7 l34 -17 -20 24 c-15 18 -16 20 -2 10
9 -7 17 -10 17 -6 0 4 7 2 15 -5 10 -8 15 -9 15 -2 0 6 7 9 15 6 8 -4 15 -2
15 3 0 5 7 10 15 10 8 0 15 -7 15 -16 0 -12 3 -11 14 4 8 12 19 16 31 12 12
-5 16 -3 12 6 -3 8 1 14 9 14 7 0 11 -4 8 -9 -3 -4 2 -5 10 -2 9 3 16 14 16
23 0 14 2 14 10 1 7 -11 10 -11 10 -2 0 7 5 10 10 7 9 -6 14 8 11 28 -1 5 4 5
10 1 9 -5 10 -2 6 9 -4 12 -2 14 11 10 14 -5 14 -3 -3 17 -11 13 -15 21 -9 17
6 -3 11 0 11 7 0 7 -6 13 -14 14 -7 1 -20 3 -28 4 -8 1 -12 5 -10 9 3 4 -5 7
-18 7 -12 0 -32 2 -44 5 -16 4 -20 2 -17 -8 6 -15 -12 -15 -35 -1 -9 6 -18 3
-28 -9 -13 -18 -13 -18 -14 1 0 18 -1 18 -9 -1 -6 -13 -9 -15 -9 -5 -1 13 -3
13 -10 1 -7 -11 -10 -10 -14 5 -4 17 -5 17 -6 1 -1 -11 -6 -15 -12 -11 -6 3
-15 0 -20 -7 -6 -10 -9 -11 -9 -1 0 6 -7 12 -16 12 -8 0 -13 -4 -10 -8 3 -5
-1 -9 -9 -9 -8 0 -12 4 -9 9 8 13 -10 10 -25 -5 -11 -9 -12 -9 -7 0 5 9 2 11
-8 7 -9 -3 -14 -10 -11 -15 3 -4 -4 -6 -16 -4 -13 3 -29 -1 -38 -8 -12 -10
-14 -9 -9 4 4 11 -1 15 -18 15 -13 0 -24 -3 -24 -7 0 -4 -14 -4 -31 1 -24 7
-28 6 -21 -3 8 -9 3 -12 -18 -12 -16 -1 -27 2 -24 6 2 4 0 11 -6 14 -6 4 -9 1
-8 -6 2 -6 -3 -14 -11 -17 -9 -3 -11 0 -6 9 5 8 -1 6 -12 -4 -14 -12 -23 -15
-28 -7 -3 5 -11 8 -16 4 -5 -3 -6 -10 -3 -16 5 -7 2 -8 -6 -3 -10 6 -3 17 26
43 21 19 58 51 81 72 23 21 61 53 84 71 23 19 53 45 68 59 16 14 50 44 77 67
27 23 60 51 74 63 14 12 47 40 74 63 27 23 54 47 60 52 24 22 152 133 175 151
89 72 165 142 176 164 16 32 11 62 -17 103 -30 41 -39 48 -61 43 -15 -4 -16
-2 -6 10 13 16 10 18 -10 5z"/>
<path d="M615 300 c3 -5 8 -10 11 -10 2 0 4 5 4 10 0 6 -5 10 -11 10 -5 0 -7
-4 -4 -10z"/>
</g>
</svg>
